<svg viewBox="0 0 24 24" fill="currentColor" xmlns="http://www.w3.org/2000/svg">
    <path d="M8.29289 5.29289C7.90237 5.68342 7.90237 6.31658 8.29289 6.70711C8.68342 7.09763 9.31658 7.09763 9.70711 6.70711L8.29289 5.29289ZM12 3L12.7071 2.29289C12.3166 1.90237 11.6834 1.90237 11.2929 2.29289L12 3ZM14.2929 6.70711C14.6834 7.09763 15.3166 7.09763 15.7071 6.70711C16.0976 6.31658 16.0976 5.68342 15.7071 5.29289L14.2929 6.70711ZM9.70711 6.70711L12.7071 3.70711L11.2929 2.29289L8.29289 5.29289L9.70711 6.70711ZM11.2929 3.70711L14.2929 6.70711L15.7071 5.29289L12.7071 2.29289L11.2929 3.70711Z" fill="currentColor"/>
    <path d="M11 13C11 13.5523 11.4477 14 12 14C12.5523 14 13 13.5523 13 13H11ZM13 3C13 2.44772 12.5523 2 12 2C11.4477 2 11 2.44772 11 3L13 3ZM13 13L13 3L11 3L11 13H13Z" fill="currentColor"/>
    <path d="M17 9C16.4477 9 16 9.44772 16 10C16 10.5523 16.4477 11 17 11V9ZM7 11C7.55228 11 8 10.5523 8 10C8 9.44772 7.55228 9 7 9V11ZM19 11V20H21V11H19ZM19 20H5V22H19V20ZM5 20V11H3V20H5ZM17 11H19V9H17V11ZM5 11H7V9H5V11ZM5 20H3C3 21.1046 3.89543 22 5 22V20ZM19 20V22C20.1046 22 21 21.1046 21 20H19ZM21 11C21 9.89543 20.1046 9 19 9V11H21ZM5 11V11V9C3.89543 9 3 9.89543 3 11H5Z" fill="currentColor"/>
</svg>
